<mxfile host="app.diagrams.net" modified="2021-01-02T06:14:56.921Z" agent="5.0 (Macintosh; Intel Mac OS X 11_0_1) AppleWebKit/537.36 (KHTML, like Gecko) Chrome/87.0.4280.88 Safari/537.36" etag="ltkDqT8PbGatKaZ27XXo" version="14.1.7" type="github">
  <diagram id="pOFH6XkHzw3yGOeCDW9M" name="Page-1">
    <mxGraphModel dx="1298" dy="691" grid="1" gridSize="10" guides="1" tooltips="1" connect="1" arrows="1" fold="1" page="1" pageScale="1" pageWidth="850" pageHeight="1100" math="0" shadow="0">
      <root>
        <mxCell id="0" />
        <mxCell id="1" parent="0" />
        <mxCell id="rlRxZtvAvbKKG0w-74Zy-1" value="消费者终端" style="verticalAlign=top;align=left;spacingTop=8;spacingLeft=2;spacingRight=12;shape=cube;size=10;direction=south;fontStyle=4;html=1;" vertex="1" parent="1">
          <mxGeometry x="40" y="277.5" width="180" height="120" as="geometry" />
        </mxCell>
        <mxCell id="rlRxZtvAvbKKG0w-74Zy-2" value="服务员终端" style="verticalAlign=top;align=left;spacingTop=8;spacingLeft=2;spacingRight=12;shape=cube;size=10;direction=south;fontStyle=4;html=1;" vertex="1" parent="1">
          <mxGeometry x="360" y="50" width="180" height="120" as="geometry" />
        </mxCell>
        <mxCell id="rlRxZtvAvbKKG0w-74Zy-3" value="管理员pc" style="verticalAlign=top;align=left;spacingTop=8;spacingLeft=2;spacingRight=12;shape=cube;size=10;direction=south;fontStyle=4;html=1;" vertex="1" parent="1">
          <mxGeometry x="360" y="540" width="180" height="120" as="geometry" />
        </mxCell>
        <mxCell id="rlRxZtvAvbKKG0w-74Zy-4" value="服务器" style="verticalAlign=top;align=left;spacingTop=8;spacingLeft=2;spacingRight=12;shape=cube;size=10;direction=south;fontStyle=4;html=1;" vertex="1" parent="1">
          <mxGeometry x="360" y="230" width="360" height="225" as="geometry" />
        </mxCell>
        <mxCell id="rlRxZtvAvbKKG0w-74Zy-5" value="消费者界面&#xa;" style="shape=module;align=left;spacingLeft=20;align=center;verticalAlign=top;" vertex="1" parent="1">
          <mxGeometry x="70" y="330" width="100" height="50" as="geometry" />
        </mxCell>
        <mxCell id="rlRxZtvAvbKKG0w-74Zy-6" value="卡信息管理" style="shape=module;align=left;spacingLeft=20;align=center;verticalAlign=top;" vertex="1" parent="1">
          <mxGeometry x="400" y="270" width="100" height="50" as="geometry" />
        </mxCell>
        <mxCell id="rlRxZtvAvbKKG0w-74Zy-7" value="交易记录" style="shape=module;align=left;spacingLeft=20;align=center;verticalAlign=top;" vertex="1" parent="1">
          <mxGeometry x="570" y="270" width="100" height="50" as="geometry" />
        </mxCell>
        <mxCell id="rlRxZtvAvbKKG0w-74Zy-8" value="统计模块" style="shape=module;align=left;spacingLeft=20;align=center;verticalAlign=top;" vertex="1" parent="1">
          <mxGeometry x="470" y="380" width="100" height="50" as="geometry" />
        </mxCell>
        <mxCell id="rlRxZtvAvbKKG0w-74Zy-9" value="服务员界面" style="shape=module;align=left;spacingLeft=20;align=center;verticalAlign=top;" vertex="1" parent="1">
          <mxGeometry x="400" y="100" width="100" height="50" as="geometry" />
        </mxCell>
        <mxCell id="rlRxZtvAvbKKG0w-74Zy-11" value="管理员界面" style="shape=module;align=left;spacingLeft=20;align=center;verticalAlign=top;" vertex="1" parent="1">
          <mxGeometry x="390" y="590" width="100" height="50" as="geometry" />
        </mxCell>
        <mxCell id="rlRxZtvAvbKKG0w-74Zy-12" value="" style="line;strokeWidth=1;fillColor=none;align=left;verticalAlign=middle;spacingTop=-1;spacingLeft=3;spacingRight=3;rotatable=0;labelPosition=right;points=[];portConstraint=eastwest;" vertex="1" parent="1">
          <mxGeometry x="220" y="333.5" width="140" height="8" as="geometry" />
        </mxCell>
        <mxCell id="rlRxZtvAvbKKG0w-74Zy-15" value="" style="endArrow=none;html=1;entryX=1.008;entryY=0.594;entryDx=0;entryDy=0;entryPerimeter=0;exitX=0;exitY=0;exitDx=0;exitDy=175;exitPerimeter=0;" edge="1" parent="1" source="rlRxZtvAvbKKG0w-74Zy-4" target="rlRxZtvAvbKKG0w-74Zy-2">
          <mxGeometry width="50" height="50" relative="1" as="geometry">
            <mxPoint x="420" y="240" as="sourcePoint" />
            <mxPoint x="450" y="320" as="targetPoint" />
          </mxGeometry>
        </mxCell>
        <mxCell id="rlRxZtvAvbKKG0w-74Zy-16" value="tcp/ip" style="text;html=1;align=center;verticalAlign=middle;resizable=0;points=[];autosize=1;" vertex="1" parent="1">
          <mxGeometry x="435" y="190" width="40" height="20" as="geometry" />
        </mxCell>
        <mxCell id="rlRxZtvAvbKKG0w-74Zy-17" value="" style="endArrow=none;html=1;entryX=0;entryY=0;entryDx=0;entryDy=85;entryPerimeter=0;exitX=0;exitY=0;exitDx=225;exitDy=185;exitPerimeter=0;" edge="1" parent="1" source="rlRxZtvAvbKKG0w-74Zy-4" target="rlRxZtvAvbKKG0w-74Zy-3">
          <mxGeometry width="50" height="50" relative="1" as="geometry">
            <mxPoint x="555" y="240" as="sourcePoint" />
            <mxPoint x="443.08000000000015" y="180.96000000000004" as="targetPoint" />
          </mxGeometry>
        </mxCell>
        <mxCell id="rlRxZtvAvbKKG0w-74Zy-18" value="tcp/ip" style="text;html=1;align=center;verticalAlign=middle;resizable=0;points=[];autosize=1;" vertex="1" parent="1">
          <mxGeometry x="500" y="490" width="40" height="20" as="geometry" />
        </mxCell>
        <mxCell id="rlRxZtvAvbKKG0w-74Zy-19" value="tcp/ip" style="text;html=1;align=center;verticalAlign=middle;resizable=0;points=[];autosize=1;" vertex="1" parent="1">
          <mxGeometry x="240" y="339" width="40" height="20" as="geometry" />
        </mxCell>
        <mxCell id="rlRxZtvAvbKKG0w-74Zy-20" value="Use" style="endArrow=open;endSize=12;dashed=1;html=1;exitX=1;exitY=0.5;exitDx=0;exitDy=0;entryX=0.1;entryY=0.2;entryDx=0;entryDy=0;entryPerimeter=0;" edge="1" parent="1" source="rlRxZtvAvbKKG0w-74Zy-6" target="rlRxZtvAvbKKG0w-74Zy-7">
          <mxGeometry width="160" relative="1" as="geometry">
            <mxPoint x="260" y="350" as="sourcePoint" />
            <mxPoint x="420" y="350" as="targetPoint" />
            <Array as="points" />
          </mxGeometry>
        </mxCell>
        <mxCell id="rlRxZtvAvbKKG0w-74Zy-22" value="Use" style="endArrow=open;endSize=12;dashed=1;html=1;exitX=0.5;exitY=0;exitDx=0;exitDy=0;entryX=0;entryY=0;entryDx=0;entryDy=35;entryPerimeter=0;" edge="1" parent="1" source="rlRxZtvAvbKKG0w-74Zy-8" target="rlRxZtvAvbKKG0w-74Zy-7">
          <mxGeometry width="160" relative="1" as="geometry">
            <mxPoint x="510" y="305" as="sourcePoint" />
            <mxPoint x="590" y="290" as="targetPoint" />
            <Array as="points" />
          </mxGeometry>
        </mxCell>
        <mxCell id="rlRxZtvAvbKKG0w-74Zy-23" value="Use" style="endArrow=open;endSize=12;dashed=1;html=1;exitX=0.25;exitY=0;exitDx=0;exitDy=0;entryX=0;entryY=0;entryDx=0;entryDy=35;entryPerimeter=0;" edge="1" parent="1" source="rlRxZtvAvbKKG0w-74Zy-11" target="rlRxZtvAvbKKG0w-74Zy-8">
          <mxGeometry width="160" relative="1" as="geometry">
            <mxPoint x="520" y="315" as="sourcePoint" />
            <mxPoint x="600" y="300" as="targetPoint" />
            <Array as="points">
              <mxPoint x="415" y="415" />
            </Array>
          </mxGeometry>
        </mxCell>
        <mxCell id="rlRxZtvAvbKKG0w-74Zy-24" value="Use" style="endArrow=open;endSize=12;dashed=1;html=1;exitX=1;exitY=0.5;exitDx=0;exitDy=0;entryX=0.75;entryY=1;entryDx=0;entryDy=0;" edge="1" parent="1" source="rlRxZtvAvbKKG0w-74Zy-11" target="rlRxZtvAvbKKG0w-74Zy-7">
          <mxGeometry width="160" relative="1" as="geometry">
            <mxPoint x="530" y="325" as="sourcePoint" />
            <mxPoint x="610" y="310" as="targetPoint" />
            <Array as="points">
              <mxPoint x="645" y="615" />
            </Array>
          </mxGeometry>
        </mxCell>
        <mxCell id="rlRxZtvAvbKKG0w-74Zy-25" value="Use" style="endArrow=open;endSize=12;dashed=1;html=1;exitX=0.5;exitY=0;exitDx=0;exitDy=0;entryX=0;entryY=0;entryDx=0;entryDy=35;entryPerimeter=0;" edge="1" parent="1" source="rlRxZtvAvbKKG0w-74Zy-5" target="rlRxZtvAvbKKG0w-74Zy-6">
          <mxGeometry width="160" relative="1" as="geometry">
            <mxPoint x="540" y="335" as="sourcePoint" />
            <mxPoint x="620" y="320" as="targetPoint" />
            <Array as="points">
              <mxPoint x="120" y="305" />
            </Array>
          </mxGeometry>
        </mxCell>
        <mxCell id="rlRxZtvAvbKKG0w-74Zy-26" value="Use" style="endArrow=open;endSize=12;dashed=1;html=1;exitX=0;exitY=0;exitDx=0;exitDy=35;entryX=0;entryY=0;entryDx=0;entryDy=15;entryPerimeter=0;exitPerimeter=0;" edge="1" parent="1" source="rlRxZtvAvbKKG0w-74Zy-9" target="rlRxZtvAvbKKG0w-74Zy-6">
          <mxGeometry width="160" relative="1" as="geometry">
            <mxPoint x="550" y="345" as="sourcePoint" />
            <mxPoint x="630" y="330" as="targetPoint" />
            <Array as="points" />
          </mxGeometry>
        </mxCell>
      </root>
    </mxGraphModel>
  </diagram>
</mxfile>
